# xmcd
#
# Track frame offsets:
# 150
# 7423
# 27623
# 43763
# 47135
# 66622
# 88503
# 107876
# 121959
# 138689
# 145018
# 159787
# 178549
# 202273
# 223180
# 244608
# 262116
#
# Disc length: 3669 seconds
#
# Revision: 0
# Processed by: cddbd v1.4PL0 Copyright (c) Steve Scherf et al.
# Submitted via: Audion 3.0.2 (http://www.panic.com/audion/)
#
DISCID=0d0e5311
DTITLE=Louis Logic - Sin-A-Matic
DYEAR=1900
DGENRE=
TTITLE0=Sintro
TTITLE1=Street Smarts
TTITLE2=Freak Show
TTITLE3=Celph Hatred - ft Celph Titled
TTITLE4=Diablos - ft Celph Titled
TTITLE5=Dos Factotum
TTITLE6=Coochie Coup ft Fienza Jollie
TTITLE7=Postal
TTITLE8=Mischievous - ft Kingston Killah
TTITLE9=Halfway Stretch (Sinterlude 
TTITLE10=Best Friends - ft Apathy
TTITLE11=Revenge!!!  - ft Celph Titled
TTITLE12=Fair Weather Fan 
TTITLE13=The Rest
TTITLE14=The Ugly Truth
TTITLE15=Idiot Gear - ft J.J. Brown
TTITLE16=Dust To Dust
EXTD=
EXTT0=
EXTT1=
EXTT2=
EXTT3=
EXTT4=
EXTT5=
EXTT6=
EXTT7=
EXTT8=
EXTT9=
EXTT10=
EXTT11=
EXTT12=
EXTT13=
EXTT14=
EXTT15=
EXTT16=
PLAYORDER=
